<svg xmlns="http://www.w3.org/2000/svg" viewBox="0 0 760 300" width="100%" style="font-family:-apple-system,Segoe UI,sans-serif;background:#fff;border:1px solid #e7e7e4;border-radius:8px"><text x="54" y="25" font-size="14" font-weight="700" fill="#1a1a1a">Commits per day · Week 9 (May 11 – May 17)</text><text x="742" y="25" font-size="11" fill="#6b6b6b" text-anchor="end">■ non-merge ■ merge (top)</text><line x1="54" y1="254.0" x2="742" y2="254.0" stroke="#eee"/><text x="46" y="257.0" font-size="10" fill="#999" text-anchor="end">0</text><line x1="54" y1="149.0" x2="742" y2="149.0" stroke="#eee"/><text x="46" y="152.0" font-size="10" fill="#999" text-anchor="end">1032</text><line x1="54" y1="44.0" x2="742" y2="44.0" stroke="#eee"/><text x="46" y="47.0" font-size="10" fill="#999" text-anchor="end">2064</text><rect x="74.1" y="109.1" width="58.0" height="144.9" fill="#3a5a8c"/><rect x="74.1" y="57.0" width="58.0" height="52.1" fill="#aebfd6"/><text x="103.1" y="271.0" font-size="11" fill="#6b6b6b" text-anchor="middle">11</text><text x="103.1" y="51.0" font-size="11" fill="#1a1a1a" text-anchor="middle" font-weight="700">1936</text><rect x="172.4" y="95.0" width="58.0" height="159.0" fill="#3a5a8c"/><rect x="172.4" y="50.9" width="58.0" height="44.1" fill="#aebfd6"/><text x="201.4" y="271.0" font-size="11" fill="#6b6b6b" text-anchor="middle">12</text><text x="201.4" y="44.9" font-size="11" fill="#1a1a1a" text-anchor="middle" font-weight="700">1996</text><rect x="270.7" y="84.7" width="58.0" height="169.3" fill="#3a5a8c"/><rect x="270.7" y="44.0" width="58.0" height="40.7" fill="#aebfd6"/><text x="299.7" y="271.0" font-size="11" fill="#6b6b6b" text-anchor="middle">13</text><text x="299.7" y="38.0" font-size="11" fill="#1a1a1a" text-anchor="middle" font-weight="700">2064</text><rect x="369.0" y="110.5" width="58.0" height="143.5" fill="#3a5a8c"/><rect x="369.0" y="58.9" width="58.0" height="51.7" fill="#aebfd6"/><text x="398.0" y="271.0" font-size="11" fill="#6b6b6b" text-anchor="middle">14</text><text x="398.0" y="52.9" font-size="11" fill="#1a1a1a" text-anchor="middle" font-weight="700">1918</text><rect x="467.3" y="139.5" width="58.0" height="114.5" fill="#3a5a8c"/><rect x="467.3" y="110.9" width="58.0" height="28.6" fill="#aebfd6"/><text x="496.3" y="271.0" font-size="11" fill="#6b6b6b" text-anchor="middle">15</text><text x="496.3" y="104.9" font-size="11" fill="#1a1a1a" text-anchor="middle" font-weight="700">1406</text><rect x="565.6" y="156.5" width="58.0" height="97.5" fill="#3a5a8c"/><rect x="565.6" y="139.9" width="58.0" height="16.6" fill="#aebfd6"/><text x="594.6" y="271.0" font-size="11" fill="#6b6b6b" text-anchor="middle">16</text><text x="594.6" y="133.9" font-size="11" fill="#1a1a1a" text-anchor="middle" font-weight="700">1121</text><rect x="663.9" y="140.5" width="58.0" height="113.5" fill="#3a5a8c"/><rect x="663.9" y="128.0" width="58.0" height="12.4" fill="#aebfd6"/><text x="692.9" y="271.0" font-size="11" fill="#6b6b6b" text-anchor="middle">17</text><text x="692.9" y="122.0" font-size="11" fill="#1a1a1a" text-anchor="middle" font-weight="700">1238</text></svg>