<svg xmlns="http://www.w3.org/2000/svg" viewBox="0 0 760 300" width="760" height="300" style="max-width:100%;height:auto;font-family:-apple-system,Segoe UI,sans-serif;background:#fff;border:1px solid #e7e7e4;border-radius:8px"><text x="54" y="25" font-size="14" font-weight="700" fill="#1a1a1a">Commits per day · Week 13 (Jun 8 – Jun 14)</text><text x="742" y="25" font-size="11" fill="#6b6b6b" text-anchor="end">■ non-merge ■ merge (top)</text><line x1="54" y1="254.0" x2="742" y2="254.0" stroke="#eee"/><text x="46" y="257.0" font-size="10" fill="#999" text-anchor="end">0</text><line x1="54" y1="148.9" x2="742" y2="148.9" stroke="#eee"/><text x="46" y="151.9" font-size="10" fill="#999" text-anchor="end">1048</text><line x1="54" y1="44.0" x2="742" y2="44.0" stroke="#eee"/><text x="46" y="47.0" font-size="10" fill="#999" text-anchor="end">2095</text><rect x="74.1" y="134.8" width="58.0" height="119.2" fill="#3a5a8c"/><rect x="74.1" y="79.9" width="58.0" height="54.9" fill="#aebfd6"/><text x="103.1" y="271.0" font-size="11" fill="#6b6b6b" text-anchor="middle">8</text><text x="103.1" y="73.9" font-size="11" fill="#1a1a1a" text-anchor="middle" font-weight="700">1737</text><rect x="172.4" y="104.8" width="58.0" height="149.2" fill="#3a5a8c"/><rect x="172.4" y="44.0" width="58.0" height="60.8" fill="#aebfd6"/><text x="201.4" y="271.0" font-size="11" fill="#6b6b6b" text-anchor="middle">9</text><text x="201.4" y="38.0" font-size="11" fill="#1a1a1a" text-anchor="middle" font-weight="700">2095</text><rect x="270.7" y="117.2" width="58.0" height="136.8" fill="#3a5a8c"/><rect x="270.7" y="64.3" width="58.0" height="52.8" fill="#aebfd6"/><text x="299.7" y="271.0" font-size="11" fill="#6b6b6b" text-anchor="middle">10</text><text x="299.7" y="58.3" font-size="11" fill="#1a1a1a" text-anchor="middle" font-weight="700">1892</text><rect x="369.0" y="181.2" width="58.0" height="72.8" fill="#3a5a8c"/><rect x="369.0" y="132.0" width="58.0" height="49.2" fill="#aebfd6"/><text x="398.0" y="271.0" font-size="11" fill="#6b6b6b" text-anchor="middle">11</text><text x="398.0" y="126.0" font-size="11" fill="#1a1a1a" text-anchor="middle" font-weight="700">1217</text><rect x="467.3" y="182.2" width="58.0" height="71.8" fill="#3a5a8c"/><rect x="467.3" y="124.6" width="58.0" height="57.6" fill="#aebfd6"/><text x="496.3" y="271.0" font-size="11" fill="#6b6b6b" text-anchor="middle">12</text><text x="496.3" y="118.6" font-size="11" fill="#1a1a1a" text-anchor="middle" font-weight="700">1291</text><rect x="565.6" y="190.1" width="58.0" height="63.9" fill="#3a5a8c"/><rect x="565.6" y="148.9" width="58.0" height="41.2" fill="#aebfd6"/><text x="594.6" y="271.0" font-size="11" fill="#6b6b6b" text-anchor="middle">13</text><text x="594.6" y="142.9" font-size="11" fill="#1a1a1a" text-anchor="middle" font-weight="700">1048</text><rect x="663.9" y="185.3" width="58.0" height="68.7" fill="#3a5a8c"/><rect x="663.9" y="154.1" width="58.0" height="31.3" fill="#aebfd6"/><text x="692.9" y="271.0" font-size="11" fill="#6b6b6b" text-anchor="middle">14</text><text x="692.9" y="148.1" font-size="11" fill="#1a1a1a" text-anchor="middle" font-weight="700">997</text></svg>