<svg xmlns="http://www.w3.org/2000/svg" viewBox="0 0 760 300" width="760" height="300" style="max-width:100%;height:auto;font-family:-apple-system,Segoe UI,sans-serif;background:#101319;border:1px solid #36404f;border-radius:8px"><text x="54" y="25" font-size="14" font-weight="700" fill="#f5f6f8">Commits per day · Aug 23 – Aug 29</text><text x="742" y="25" font-size="11" fill="#9aa3b2" text-anchor="end">■ non-merge ■ merge (top)</text><line x1="54" y1="254.0" x2="742" y2="254.0" stroke="#262d39"/><text x="46" y="257.0" font-size="10" fill="#9aa3b2" text-anchor="end">0</text><line x1="54" y1="148.9" x2="742" y2="148.9" stroke="#262d39"/><text x="46" y="151.9" font-size="10" fill="#9aa3b2" text-anchor="end">632</text><line x1="54" y1="44.0" x2="742" y2="44.0" stroke="#262d39"/><text x="46" y="47.0" font-size="10" fill="#9aa3b2" text-anchor="end">1263</text><rect x="74.1" y="247.5" width="58.0" height="6.5" fill="#7ab8ff"/><rect x="74.1" y="240.2" width="58.0" height="7.3" fill="#b69cff"/><text x="103.1" y="271.0" font-size="11" fill="#5b6373" text-anchor="middle">23</text><text x="103.1" y="234.2" font-size="11" fill="#f5f6f8" text-anchor="middle" font-weight="700">83</text><rect x="172.4" y="201.1" width="58.0" height="52.9" fill="#7ab8ff"/><rect x="172.4" y="99.0" width="58.0" height="102.1" fill="#b69cff"/><text x="201.4" y="271.0" font-size="11" fill="#5b6373" text-anchor="middle">24</text><text x="201.4" y="93.0" font-size="11" fill="#f5f6f8" text-anchor="middle" font-weight="700">932</text><rect x="270.7" y="193.8" width="58.0" height="60.2" fill="#7ab8ff"/><rect x="270.7" y="149.7" width="58.0" height="44.1" fill="#b69cff"/><text x="299.7" y="271.0" font-size="11" fill="#5b6373" text-anchor="middle">25</text><text x="299.7" y="143.7" font-size="11" fill="#f5f6f8" text-anchor="middle" font-weight="700">627</text><rect x="369.0" y="184.5" width="58.0" height="69.5" fill="#7ab8ff"/><rect x="369.0" y="167.5" width="58.0" height="17.0" fill="#b69cff"/><text x="398.0" y="271.0" font-size="11" fill="#5b6373" text-anchor="middle">26</text><text x="398.0" y="161.5" font-size="11" fill="#f5f6f8" text-anchor="middle" font-weight="700">520</text><rect x="467.3" y="164.2" width="58.0" height="89.8" fill="#7ab8ff"/><rect x="467.3" y="127.3" width="58.0" height="36.9" fill="#b69cff"/><text x="496.3" y="271.0" font-size="11" fill="#5b6373" text-anchor="middle">27</text><text x="496.3" y="121.3" font-size="11" fill="#f5f6f8" text-anchor="middle" font-weight="700">762</text><rect x="565.6" y="208.6" width="58.0" height="45.4" fill="#7ab8ff"/><rect x="565.6" y="188.3" width="58.0" height="20.3" fill="#b69cff"/><text x="594.6" y="271.0" font-size="11" fill="#5b6373" text-anchor="middle">28</text><text x="594.6" y="182.3" font-size="11" fill="#f5f6f8" text-anchor="middle" font-weight="700">395</text><rect x="663.9" y="133.0" width="58.0" height="121.0" fill="#7ab8ff"/><rect x="663.9" y="44.0" width="58.0" height="89.0" fill="#b69cff"/><text x="692.9" y="271.0" font-size="11" fill="#5b6373" text-anchor="middle">29</text><text x="692.9" y="38.0" font-size="11" fill="#f5f6f8" text-anchor="middle" font-weight="700">1263</text></svg>